<?xml version="1.0" standalone="no"?>
<!DOCTYPE svg PUBLIC "-//W3C//DTD SVG 1.1//EN" "http://www.w3.org/Graphics/SVG/1.1/DTD/svg11.dtd" >
<svg xmlns="http://www.w3.org/2000/svg">
<metadata>Generated by IcoMoon</metadata>
<defs>
<font id="icomoon" horiz-adv-x="1024">
<font-face units-per-em="1024" ascent="960" descent="-64" />
<missing-glyph horiz-adv-x="1024" />
<glyph unicode="&#x20;" horiz-adv-x="512" d="" />
<glyph unicode="&#xe900;" glyph-name="add" d="M768 416h-512c-17.493 0-32 14.507-32 32s14.507 32 32 32h512c17.493 0 32-14.507 32-32s-14.507-32-32-32zM512 160c-17.493 0-32 14.507-32 32v512c0 17.493 14.507 32 32 32s32-14.507 32-32v-512c0-17.493-14.507-32-32-32z" />
<glyph unicode="&#xe901;" glyph-name="close" d="M711.113 191.953l-455.109 455.11c-15.549 15.55-15.549 41.339 0 56.889s41.339 15.55 56.889 0l455.108-455.111c15.552-15.548 15.552-41.335 0-56.887-15.548-15.548-41.335-15.548-56.887 0zM255.998 191.953c-15.549 15.552-15.549 41.34 0 56.887l455.11 455.111c15.548 15.55 41.34 15.55 56.887 0 15.552-15.549 15.552-41.339 0-56.889l-455.109-455.11c-15.549-15.548-41.339-15.548-56.889 0z" />
<glyph unicode="&#xe902;" glyph-name="bank_fill" d="M938.667 149.333v-128h-853.333v128c0 23.467 19.2 42.667 42.667 42.667h768c23.467 0 42.667-19.2 42.667-42.667zM298.667 490.667h-85.333v-298.667h85.333v298.667zM469.333 490.667h-85.333v-298.667h85.333v298.667zM640 490.667h-85.333v-298.667h85.333v298.667zM810.667 490.667h-85.333v-298.667h85.333v298.667zM981.333-10.667h-938.667c-17.493 0-32 14.507-32 32s14.507 32 32 32h938.667c17.493 0 32-14.507 32-32s-14.507-32-32-32zM911.787 714.673l-384 153.6c-8.533 3.413-23.040 3.413-31.573 0l-384-153.6c-14.933-5.973-26.88-23.467-26.88-39.68v-141.653c0-23.465 19.2-42.665 42.667-42.665h768c23.467 0 42.667 19.2 42.667 42.665v141.653c0 16.213-11.947 33.707-26.88 39.68zM512 597.34c-35.413 0-64 28.587-64 64s28.587 64 64 64c35.413 0 64-28.587 64-64s-28.587-64-64-64z" />
<glyph unicode="&#xe903;" glyph-name="utility_fill" d="M862.293 626.37l-328.533-190.295c-13.227-7.68-29.867-7.68-43.52 0l-328.535 190.295c-23.467 13.653-29.44 45.653-11.52 65.707 12.373 14.080 26.453 25.6 41.387 33.707l231.253 128c49.495 27.733 129.708 27.733 179.201 0l231.253-128c14.933-8.107 29.013-20.053 41.387-33.707 17.067-20.053 11.093-52.053-12.373-65.707zM487.68 356.655v-290.987c0-32.427-32.853-53.76-61.868-39.68-87.893 43.093-235.947 123.733-235.947 123.733-52.053 29.44-94.72 103.68-94.72 164.693v220.162c0 33.707 35.413 55.040 64.427 38.4l306.774-177.922c12.8-8.107 21.333-22.613 21.333-38.4zM536.324 356.655v-290.987c0-32.427 32.853-53.76 61.867-39.68 87.893 43.093 235.947 123.733 235.947 123.733 52.053 29.44 94.72 103.68 94.72 164.693v220.162c0 33.707-35.413 55.040-64.427 38.4l-306.773-177.922c-12.8-8.107-21.333-22.613-21.333-38.4z" />
<glyph unicode="&#xe904;" glyph-name="calendar_unfill" d="M341.338 714.7c-17.494 0-32 14.507-32 32v128c0 17.494 14.506 32 32 32s32-14.506 32-32v-128c0-17.493-14.507-32-32-32zM682.665 714.7c-17.495 0-32 14.507-32 32v128c0 17.494 14.505 32 32 32 17.49 0 32-14.506 32-32v-128c0-17.493-14.51-32-32-32zM362.666 341.304c-5.546 0-11.093 1.28-16.213 3.41-5.547 2.135-9.814 5.125-14.080 8.965-7.68 8.105-12.374 18.77-12.374 30.29 0 5.545 1.28 11.095 3.414 16.215s5.12 9.81 8.96 14.080c4.266 3.84 8.533 6.825 14.080 8.96 15.36 6.4 34.56 2.985 46.506-8.96 7.68-8.11 12.374-19.2 12.374-30.295 0-2.56-0.427-5.545-0.854-8.535-0.426-2.56-1.28-5.12-2.56-7.68-0.854-2.56-2.134-5.115-3.84-7.675-1.28-2.135-3.414-4.27-5.12-6.4-8.106-7.68-19.2-12.375-30.294-12.375zM512.005 341.315c-5.548 0-11.095 1.28-16.215 3.41-5.546 2.135-9.813 5.125-14.079 8.965-7.68 8.105-12.374 18.77-12.374 30.29 0 5.55 1.28 11.095 3.414 16.215s5.12 9.81 8.96 14.080c4.266 3.84 8.533 6.825 14.079 8.96 15.36 6.825 34.559 2.985 46.504-8.96 7.68-8.11 12.375-19.2 12.375-30.295 0-2.56-0.425-5.545-0.855-8.535-0.425-2.56-1.28-5.12-2.56-7.68-0.85-2.56-2.13-5.115-3.84-7.675-1.28-2.135-3.41-4.27-5.12-6.4-8.105-7.68-19.2-12.375-30.29-12.375zM661.33 341.315c-5.545 0-11.095 1.28-16.215 3.41-5.545 2.135-9.81 5.125-14.080 8.965-1.705 2.13-3.41 4.265-5.12 6.4-1.705 2.56-2.985 5.115-3.84 7.675-1.28 2.56-2.13 5.12-2.56 7.68-0.425 2.99-0.85 5.975-0.85 8.535 0 11.095 4.69 22.185 12.37 30.295 4.27 3.84 8.535 6.825 14.080 8.96 15.79 6.825 34.56 2.985 46.51-8.96 7.68-8.11 12.37-19.2 12.37-30.295 0-2.56-0.425-5.545-0.85-8.535-0.43-2.56-1.28-5.12-2.56-7.68-0.855-2.56-2.135-5.115-3.84-7.675-1.28-2.135-3.415-4.27-5.12-6.4-8.11-7.68-19.2-12.375-30.295-12.375zM362.666 192c-5.546 0-11.093 1.28-16.213 3.415-5.12 2.13-9.814 5.12-14.080 8.96-7.68 8.105-12.374 19.2-12.374 30.29 0 5.55 1.28 11.095 3.414 16.215 2.133 5.545 5.12 10.24 8.96 14.080 15.786 15.785 44.8 15.785 60.586 0 7.68-8.105 12.374-19.2 12.374-30.295 0-11.090-4.694-22.185-12.374-30.29-8.106-7.68-19.2-12.375-30.294-12.375zM512.005 192c-11.095 0-22.188 4.695-30.294 12.375-7.68 8.105-12.374 19.2-12.374 30.29 0 5.55 1.28 11.095 3.414 16.215 2.133 5.545 5.12 10.24 8.96 14.080 15.786 15.785 44.799 15.785 60.584 0 3.84-3.84 6.83-8.535 8.96-14.080 2.135-5.12 3.415-10.665 3.415-16.215 0-11.090-4.695-22.185-12.375-30.29-8.105-7.68-19.2-12.375-30.29-12.375zM661.33 192.031c-11.095 0-22.185 4.69-30.295 12.37-3.84 3.84-6.825 8.535-8.96 14.080-2.13 5.12-3.41 10.67-3.41 16.215s1.28 11.095 3.41 16.215c2.135 5.545 5.12 10.24 8.96 14.080 9.815 9.81 24.75 14.505 38.4 11.52 2.99-0.43 5.55-1.28 8.11-2.56 2.56-0.855 5.12-2.135 7.68-3.845 2.13-1.28 4.265-3.41 6.4-5.115 7.68-8.11 12.37-19.2 12.37-30.295s-4.69-22.185-12.37-30.295c-8.11-7.68-19.2-12.37-30.295-12.37zM874.67 540.2h-725.332c-17.494 0-32 14.506-32 32s14.506 32 32 32h725.332c17.495 0 32-14.506 32-32s-14.505-32-32-32zM682.665-10.634h-341.331c-155.734 0-245.334 89.6-245.334 245.335v362.666c0 155.733 89.6 245.333 245.334 245.333h341.331c155.735 0 245.335-89.6 245.335-245.333v-362.666c0-155.735-89.6-245.335-245.335-245.335zM341.334 778.7c-122.027 0-181.334-59.306-181.334-181.333v-362.666c0-122.025 59.306-181.335 181.334-181.335h341.331c122.030 0 181.335 59.31 181.335 181.335v362.666c0 122.026-59.305 181.333-181.335 181.333h-341.331z" />
<glyph unicode="&#xe905;" glyph-name="arrow_down" d="M299.599 557.714h408.575c7.231-0.001 14.302-2.147 20.314-6.166s10.698-9.729 13.468-16.411c2.765-6.681 3.491-14.034 2.082-21.127-1.414-7.093-4.896-13.609-10.006-18.724l-204.288-204.286c-6.861-6.856-16.16-10.708-25.858-10.708-9.694 0-18.997 3.852-25.855 10.708l-204.288 204.286c-5.113 5.115-8.595 11.63-10.005 18.724s-0.686 14.445 2.081 21.127c2.767 6.682 7.454 12.393 13.466 16.411s13.082 6.164 20.314 6.166z" />
<glyph unicode="&#xe906;" glyph-name="top_up_fill" d="M938.667 53.333c0-17.493-14.507-32-32-32h-789.333c-17.493 0-32 14.507-32 32s14.507 32 32 32h789.333c17.493 0 32-14.507 32-32zM656.636 767.156l-458.238-458.241c-17.493-17.493-45.653-17.493-62.72 0h-0.427c-59.307 59.733-59.307 156.16 0 215.467l305.065 305.068c59.733 59.733 156.16 59.733 215.893 0 17.493-16.64 17.493-45.227 0.427-62.293zM888.316 597.747l-130.133 130.133c-17.493 17.493-45.653 17.493-62.72 0l-458.238-458.24c-17.493-17.067-17.493-45.227 0-62.72l130.133-130.56c59.732-59.307 156.158-59.307 215.892 0l304.64 305.067c60.587 59.733 60.587 156.586 0.427 216.32zM544.422 212.467l-51.627-52.053c-10.667-10.667-28.16-10.667-39.253 0-10.667 10.667-10.667 28.16 0 39.253l52.053 52.053c10.24 10.24 28.16 10.24 38.827 0 10.667-10.667 10.667-29.013 0-39.253zM713.809 381.854l-104.107-104.533c-10.667-10.24-28.16-10.24-39.253 0-10.667 10.667-10.667 28.16 0 39.253l104.533 104.533c10.24 10.24 28.16 10.24 38.827 0 10.667-11.093 10.667-28.587 0-39.253z" />
<glyph unicode="&#xe907;" glyph-name="arrow_right_2" d="M489.728 192c-5.658 0-11.319 2.065-15.791 6.498l-194.251 192.542c-31.581 31.305-31.581 82.688 0 113.993l194.251 192.544c8.64 8.564 22.942 8.564 31.582 0s8.64-22.739 0-31.303l-194.252-192.546c-14.301-14.174-14.301-37.21 0-51.383l194.252-192.546c8.64-8.563 8.64-22.737 0-31.3-4.467-4.134-10.129-6.498-15.791-6.498zM768.998 192c-5.658 0-11.319 2.065-15.787 6.498l-194.257 192.542c-31.578 31.305-31.578 82.688 0 113.993l194.257 192.544c8.64 8.564 22.938 8.564 31.578 0s8.64-22.739 0-31.303l-194.253-192.546c-14.298-14.174-14.298-37.21 0-51.383l194.253-192.546c8.64-8.563 8.64-22.737 0-31.3-4.467-4.134-10.129-6.498-15.791-6.498z" />
<glyph unicode="&#xe908;" glyph-name="enquiry_fill" d="M612.267 874.667h-200.533c-44.373 0-80.64-35.84-80.64-80.213v-40.107c0-44.373 35.84-80.213 80.213-80.213h200.96c44.373 0 80.213 35.84 80.213 80.213v40.107c0.427 44.373-35.84 80.213-80.213 80.213zM735.573 754.368c0-67.84-55.467-123.307-123.307-123.307h-200.532c-67.84 0-123.307 55.467-123.307 123.307 0 23.893-25.6 38.827-46.933 27.733-60.16-32-101.12-95.573-101.12-168.533v-401.494c0-104.96 85.76-190.72 190.72-190.72h361.812c104.96 0 190.72 85.76 190.72 190.72v401.494c0 72.96-40.96 136.533-101.12 168.533-21.333 11.093-46.933-3.84-46.933-27.733zM528.213 236.821h-186.878c-17.493 0-32 14.507-32 32s14.507 32 32 32h186.878c17.493 0 32-14.507 32-32s-14.507-32-32-32zM640 407.488h-298.665c-17.493 0-32 14.507-32 32s14.507 32 32 32h298.665c17.493 0 32-14.507 32-32s-14.507-32-32-32z" />
<glyph unicode="&#xe909;" glyph-name="clock_unfill" d="M511.97-10.667c-253.015 0-458.668 205.653-458.668 458.667s205.653 458.667 458.668 458.667c253.013 0 458.667-205.653 458.667-458.667s-205.653-458.667-458.667-458.667zM511.97 842.667c-217.601 0-394.668-177.067-394.668-394.667s177.067-394.667 394.668-394.667c217.6 0 394.667 177.067 394.667 394.667s-177.067 394.667-394.667 394.667zM670.298 280.329c-5.547 0-11.093 1.28-16.213 4.693l-132.267 78.933c-32.853 19.627-57.173 62.72-57.173 100.693v174.935c0 17.493 14.507 32 32 32s32-14.507 32-32v-174.935c0-15.36 12.8-37.973 26.027-45.653l132.267-78.933c15.36-8.96 20.053-28.587 11.093-43.947-6.4-10.24-17.067-15.787-27.733-15.787z" />
<glyph unicode="&#xe90a;" glyph-name="document_fill" d="M674.129 865.686c-17.493 17.493-47.787 5.547-47.787-18.773v-148.907c0-62.293 52.907-113.92 117.333-113.92 40.533-0.427 96.853-0.427 145.067-0.427 24.32 0 37.12 28.587 20.053 45.653-61.44 61.867-171.52 173.227-234.667 236.373zM874.667 525.227h-123.307c-101.12 0-183.467 82.347-183.467 183.467v123.307c0 23.467-19.2 42.667-42.667 42.667h-180.907c-131.413 0-237.653-85.333-237.653-237.653v-378.027c0-152.32 106.24-237.653 237.653-237.653h335.36c131.413 0 237.653 85.333 237.653 237.653v223.573c0 23.467-19.2 42.667-42.667 42.667zM490.667 202.667h-170.667c-17.493 0-32 14.507-32 32s14.507 32 32 32h170.667c17.493 0 32-14.507 32-32s-14.507-32-32-32zM576 373.333h-256c-17.493 0-32 14.507-32 32s14.507 32 32 32h256c17.493 0 32-14.507 32-32s-14.507-32-32-32z" />
<glyph unicode="&#xe90b;" glyph-name="menu" d="M853.333 661.333h-682.667c-25.6 0-42.667 17.067-42.667 42.667s17.067 42.667 42.667 42.667h682.667c25.6 0 42.667-17.067 42.667-42.667s-17.067-42.667-42.667-42.667zM597.333 405.333h-426.667c-25.6 0-42.667 17.067-42.667 42.667s17.067 42.667 42.667 42.667h426.667c25.6 0 42.667-17.067 42.667-42.667s-17.067-42.667-42.667-42.667zM768 149.333h-597.333c-25.6 0-42.667 17.067-42.667 42.667s17.067 42.667 42.667 42.667h597.333c25.6 0 42.667-17.067 42.667-42.667s-17.067-42.667-42.667-42.667z" />
<glyph unicode="&#xe90c;" glyph-name="document_upload_fill" d="M874.667 525.227h-123.307c-101.12 0-183.467 82.347-183.467 183.467v123.307c0 23.467-19.2 42.667-42.667 42.667h-180.907c-131.413 0-237.653-85.333-237.653-237.653v-378.027c0-152.32 106.24-237.653 237.653-237.653h335.36c131.413 0 237.653 85.333 237.653 237.653v223.573c0 23.467-19.2 42.667-42.667 42.667zM491.947 382.72c-6.4-6.4-14.507-9.387-22.613-9.387s-16.213 2.987-22.613 9.387l-30.72 30.72v-178.773c0-17.493-14.507-32-32-32s-32 14.507-32 32v178.773l-30.72-30.72c-12.373-12.373-32.853-12.373-45.227 0s-12.373 32.853 0 45.227l85.333 85.333c2.987 2.56 5.973 4.693 9.387 6.4 0.853 0.427 2.133 0.853 2.987 1.28 2.56 0.853 5.12 1.28 8.107 1.707 1.28 0 2.133 0 3.413 0 3.413 0 6.827-0.853 10.24-2.133 0.427 0 0.427 0 0.853 0 3.413-1.28 6.827-3.84 9.387-6.4 0.427-0.427 0.853-0.427 0.853-0.853l85.333-85.333c12.373-12.373 12.373-32.853 0-45.227zM743.676 584.086c40.533-0.427 96.853-0.427 145.067-0.427 24.32 0 37.12 28.587 20.053 45.653-61.44 61.867-171.52 173.227-234.667 236.373-17.493 17.493-47.787 5.547-47.787-18.773v-148.907c0-62.293 52.907-113.92 117.333-113.92z" />
<glyph unicode="&#xe90d;" glyph-name="dollar_circle_fill" d="M544 280.734h27.733c27.733 0 50.773 24.747 50.773 54.613 0 37.12-13.227 44.373-34.987 52.053l-43.093 14.933v-121.6h-0.427zM510.724 878.916c-235.521-0.853-426.241-192.427-425.388-427.946s192.427-426.24 427.948-425.387c235.52 0.853 426.24 192.427 425.387 427.947s-192.427 425.813-427.947 425.386zM608.431 447.983c33.28-11.52 78.080-36.267 78.080-112.64 0-65.707-51.627-118.613-114.773-118.613h-27.733v-24.747c0-17.493-14.507-32-32-32s-32 14.507-32 32v24.747h-15.36c-69.975 0-126.721 58.88-126.721 131.413 0 17.493 14.507 32 32 32s32-14.507 32-32c0-37.12 28.161-67.413 62.721-67.413h15.36v144.213l-64.428 23.040c-33.28 11.52-78.080 36.267-78.080 112.64 0 65.707 51.627 118.613 114.775 118.613h27.733v24.747c0 17.493 14.507 32 32 32s32-14.507 32-32v-24.747h15.36c69.973 0 126.72-58.88 126.72-131.413 0-17.493-14.507-32-32-32s-32 14.507-32 32c0 37.12-28.16 67.413-62.72 67.413h-15.36v-144.213l64.427-23.040zM401.917 560.21c0-37.121 13.227-44.374 34.986-52.054l43.093-14.933v122.028h-27.733c-27.732 0-50.346-24.747-50.346-55.040z" />
<glyph unicode="&#xe90e;" glyph-name="edit" d="M260.593 127.164c-25.63 0-49.58 8.96-66.806 25.6-21.849 20.907-32.353 52.48-28.571 86.613l15.546 138.24c2.941 26.027 18.487 60.587 36.555 79.36l344.957 370.775c86.131 92.587 176.047 95.147 267.221 7.68 91.179-87.467 93.7-178.773 7.565-271.36l-344.956-370.775c-17.647-19.2-50.419-37.12-76.050-41.387l-135.293-23.467c-7.143-0.427-13.446-1.28-20.168-1.28zM697.143 835.859c-32.35 0-60.501-20.48-89.075-51.2l-344.954-371.202c-8.404-8.96-18.067-30.293-19.748-42.667l-15.546-138.24c-1.681-14.080 1.681-25.6 9.243-32.853s18.908-9.813 32.773-7.68l135.293 23.467c12.185 2.133 32.352 13.227 40.758 22.187l344.956 370.775c52.1 56.32 71.006 108.373-5.043 180.907-33.613 32.853-62.605 46.507-88.657 46.507zM756.326 492.766c-0.841 0-2.103 0-2.944 0-131.089 13.227-236.553 114.345-256.721 246.612-2.517 17.493 9.246 33.707 26.47 36.693 17.229 2.56 33.195-9.387 36.134-26.88 15.966-103.253 98.321-182.613 200.841-192.853 17.225-1.707 29.833-17.493 28.151-34.985-2.103-16.213-15.966-28.587-31.932-28.587zM910.259-10.667h-756.299c-17.227 0-31.512 14.507-31.512 32s14.286 32 31.512 32h756.299c17.225 0 31.509-14.507 31.509-32s-14.285-32-31.509-32z" />
<glyph unicode="&#xe90f;" glyph-name="arrow_left" d="M406.077 704c5.611 0 11.222-2.067 15.651-6.497l192.544-192.543c31.305-31.305 31.305-82.688 0-113.993l-192.544-192.546c-8.564-8.563-22.739-8.563-31.303 0-8.564 8.567-8.564 22.741 0 31.305l192.543 192.546c14.178 14.174 14.178 37.21 0 51.383l-192.543 192.544c-8.564 8.564-8.564 22.739 0 31.303 4.43 4.134 10.041 6.497 15.652 6.497z" />
<glyph unicode="&#xe910;" glyph-name="payment_fill" d="M633.6 791.433v-162.133h-64v162.133c0 11.52-10.24 17.067-17.067 17.067-2.133 0-4.267-0.427-6.4-1.28l-338.347-127.573c-22.613-8.533-37.12-29.867-37.12-54.187v-28.587c-38.827-29.013-64-75.521-64-128.001v156.588c0 50.773 31.147 96 78.507 113.92l338.773 128c9.387 3.413 19.2 5.12 28.587 5.12 42.667 0 81.067-34.56 81.067-81.067zM917.329 341.333v-42.667c0-11.52-8.96-20.907-20.907-21.333h-62.293c-22.613 0-43.093 16.64-44.8 38.827-1.28 13.227 3.84 25.6 12.373 34.133 7.68 8.107 18.347 12.373 29.867 12.373h64.427c12.373-0.427 21.333-9.813 21.333-21.333zM831.147 407.467h43.52c23.467 0 42.667 19.2 42.667 42.667v18.773c0 88.32-72.107 160.427-160.427 160.427h-489.813c-36.267 0-69.547-11.947-96.427-32.427-38.827-29.013-64-75.52-64-128v-287.147c0-88.32 72.107-160.427 160.427-160.427h489.813c88.32 0 160.427 72.107 160.427 160.427v8.107c0 23.467-19.2 42.667-42.667 42.667h-37.12c-40.96 0-80.213 25.173-90.88 64.853-8.96 32.427 1.707 63.573 23.040 84.48 15.787 16.213 37.547 25.6 61.44 25.6zM597.333 416h-298.667c-17.493 0-32 14.507-32 32s14.507 32 32 32h298.667c17.493 0 32-14.507 32-32s-14.507-32-32-32z" />
<glyph unicode="&#xe911;" glyph-name="eye" d="M512 263.258c-101.972 0-184.745 82.773-184.745 184.747s82.773 184.746 184.745 184.746c101.973 0 184.747-82.773 184.747-184.746s-82.773-184.747-184.747-184.747zM512 568.75c-66.56 0-120.745-54.186-120.745-120.746s54.185-120.747 120.745-120.747c66.56 0 120.747 54.187 120.747 120.747s-54.187 120.746-120.747 120.746zM512.004 63.125c-160.428 0-311.894 93.867-416.001 256.853-45.227 70.4-45.227 185.173 0 256.001 104.533 162.987 256 256.853 416.001 256.853s311.467-93.867 415.573-256.853c45.227-70.401 45.227-185.175 0-256.001-104.107-162.987-255.573-256.853-415.573-256.853zM512.004 768.833c-137.814 0-269.654-82.773-361.814-227.413-32-49.921-32-136.961 0-186.881 92.16-144.64 224-227.413 361.814-227.413s269.653 82.773 361.813 227.413c32 49.92 32 136.96 0 186.881-92.16 144.64-224 227.413-361.813 227.413z" />
<glyph unicode="&#xe912;" glyph-name="user_master_fill" d="M939.934 383.556c0 6.673-4.139 12.382-10.487 14.477l-28.983 9.408c-4.599 1.472-7.885 4.629-9.553 9.178-1.489 3.942-3.059 7.799-4.826 11.597-2.048 4.365-1.95 8.994 0.277 13.265l13.82 27.17c3.012 5.99 1.95 12.941-2.778 17.668l-31.326 31.275c-4.727 4.727-11.682 5.841-17.668 2.782l-27.123-13.82c-4.318-2.176-8.913-2.274-13.316-0.23-3.759 1.715-7.654 3.337-11.597 4.774-4.497 1.668-7.689 5.009-9.178 9.604l-9.404 28.937c-2.078 6.396-7.74 10.519-14.46 10.519h-44.233c-6.677 0-12.369-4.122-14.464-10.519l-9.404-28.937c-1.472-4.595-4.629-7.936-9.178-9.604-3.942-1.438-7.804-3.059-11.597-4.774-4.369-2.044-8.998-1.946-13.269 0.23l-27.17 13.82c-5.986 3.059-12.89 1.946-17.664-2.782l-31.262-31.258c-4.727-4.727-5.841-11.682-2.782-17.668l13.824-27.17c2.176-4.271 2.274-8.917 0.23-13.265-1.719-3.814-3.341-7.659-4.779-11.601-1.062-2.829-2.731-5.15-4.958-6.818l81.711-21.513c1.015-0.23 2.027-0.555 3.008-0.836 10.569 28.335 37.888 48.503 69.884 48.503 41.173 0 74.56-33.335 74.56-74.513 0-41.173-33.34-74.509-74.462-74.56l24.439-123.942c5.658 0.832 10.24 4.727 12.053 10.287l9.408 28.988c1.472 4.595 4.681 7.885 9.178 9.553 3.942 1.489 7.834 3.059 11.597 4.826 4.416 2.044 8.998 1.946 13.316-0.277l27.123-13.824c5.986-3.008 12.937-1.946 17.664 2.782l31.296 31.292c4.727 4.727 5.79 11.682 2.778 17.668l-13.82 27.119c-2.227 4.322-2.325 8.917-0.277 13.316 1.766 3.763 3.337 7.659 4.826 11.601 1.668 4.497 4.954 7.689 9.553 9.173l28.983 9.408c6.366 2.078 10.487 7.735 10.487 14.46v44.233zM747.776 116.804c0.832-4.352 1.259-8.717 1.259-12.941 0-15.539-5.513-30.097-14.938-41.498-9.37-11.452-22.571-19.712-37.884-22.724-4.22-0.832-8.538-1.259-12.941-1.259h-57.267c0.324 1.344 0.555 2.731 0.734 4.173l27.631 230.174c1.438 12.156-2.325 24.162-10.436 33.289-8.213 9.229-19.516 14.332-31.851 14.332h-372.704c-12.334 0-23.703-5.103-31.849-14.332-8.114-9.126-11.876-21.15-10.437-33.289l28.136-234.347h-57.024c-4.401 0-8.768 0.427-12.94 1.259-15.295 3.012-28.512 11.273-37.885 22.724-9.422 11.401-14.984 25.958-14.984 41.498 0 4.224 0.425 8.572 1.292 12.941l38.458 194.923c2.454 12.565 8.212 23.654 16.456 32.457 8.212 8.768 18.877 15.113 31.293 18.402l109.109 28.71c3.762 0.981 7.050 2.321 9.962 4.041 2.928 1.715 5.709 3.942 8.343 6.771l25.6 26.714v16.93c0 0.179 0.049 0.41 0.049 0.653-8.562 5.521-16.547 11.887-23.834 19.008-25.126 24.491-41.958 57.549-45.623 94.322-10.011 2.552-18.959 7.884-25.961 15.066-9.684 10.011-15.671 23.605-15.671 38.573 0 13.823 5.006 26.435 13.348 36.119v86.845c0 18.092 7.377 34.548 19.237 46.457 10.159 10.109 23.556 16.963 38.491 18.779 2.127 14.231 8.817 26.991 18.55 36.724 11.925 11.925 28.332 19.286 46.457 19.286h86.762c41.732 0 79.616-17.012 107.068-44.462 27.447-27.449 44.459-65.334 44.459-107.064v-56.567c8.346-9.684 13.35-22.296 13.35-36.119 0-14.984-5.986-28.561-15.671-38.573-7.002-7.181-15.949-12.514-25.963-15.066-3.712-36.773-20.497-69.831-45.619-94.322-7.287-7.121-15.275-13.487-23.838-19.008v-17.583l25.604-26.714c2.679-2.829 5.427-5.056 8.341-6.771 2.961-1.719 6.263-3.059 10.010-4.041l109.111-28.71c12.382-3.29 23.049-9.651 31.292-18.402 8.26-8.819 13.952-19.891 16.457-32.457l38.46-194.923zM425.731 448.482c34.173 0 65.286 13.726 88.104 35.938 22.903 22.298 37.427 53.1 38.298 87.075 0.064 3.407 1.442 6.658 3.84 9.076 2.402 2.419 5.641 3.82 9.050 3.912 7.787 0.229 14.788 3.566 19.891 8.817 5.005 5.153 8.111 12.236 8.111 20.072 0 7.983-3.238 15.213-8.486 20.448-5.188 5.186-12.433 8.441-20.399 8.441-1.766 0-3.435-0.131-4.907-0.376-1.391-0.229-2.684-0.556-4.041-1.014-1.54-0.654-3.243-0.981-5.056-0.981-7.33 0-13.316 5.938-13.316 13.266v22.116c0 4.221-0.704 8.015-2.125 11.451-1.442 3.484-3.665 6.674-6.592 9.602-2.961 2.928-6.17 5.104-9.651 6.494-3.567 1.44-7.381 2.127-11.503 2.127-29.623-0.278-57.873 0.883-84.489 3.664-26.484 2.781-51.43 7.148-74.659 13.315-18.37 0.098-25.044-37.427-29.87-64.451l-1.26-6.822c-0.131-1.161-0.425-2.323-0.883-3.435-2.83-6.772-10.616-9.962-17.34-7.181-1.756 0.751-3.587 1.311-5.463 1.669-1.849 0.376-3.762 0.556-5.709 0.556-7.983 0-15.213-3.239-20.448-8.441-5.186-5.235-8.441-12.481-8.441-20.448 0-7.836 3.108-14.935 8.113-20.072 5.104-5.234 12.105-8.572 19.843-8.817 7.001-0.18 12.759-5.84 12.89-12.939 0.883-33.992 15.442-64.827 38.294-87.124 22.869-22.212 53.982-35.938 88.203-35.938zM481.937 432.614c-17.438-6.903-36.395-10.765-56.206-10.765-19.81 0-38.769 3.844-56.207 10.765v-15.262c0-15.539 6.314-29.577 16.456-39.735 10.159-10.155 24.21-16.457 39.734-16.457s29.577 6.302 39.736 16.457c10.155 10.159 16.452 24.213 16.452 39.735v15.262h0.034zM627.951 275.887l-27.631-230.174c-0.457-4.22-3.989-7.33-8.26-7.33h-340.069l-28.512 237.504c-0.556 4.681 0.785 8.947 3.942 12.514 3.157 3.516 7.23 5.38 11.958 5.38h372.721c4.727 0 8.815-1.847 11.955-5.38 3.157-3.567 4.45-7.821 3.895-12.514zM455.223 166.093c0 16.226-13.265 29.491-29.492 29.491-16.276 0-29.543-13.265-29.543-29.491 0-16.277 13.267-29.495 29.543-29.495 16.227 0 29.492 13.218 29.492 29.495z" />
<glyph unicode="&#xe913;" glyph-name="reports_fill" d="M924.582 663.491c-27.307 92.587-104.533 169.813-197.12 197.12-70.4 20.48-119.040 18.773-152.747-6.4-40.533-30.293-45.227-84.907-45.227-123.733v-106.24c0-104.959 47.787-158.292 141.653-158.292h122.453c38.4 0 93.44 4.693 123.733 45.227 26.027 33.279 28.16 81.919 7.253 152.319zM806.822 390.007c-11.093 12.8-27.307 20.053-43.947 20.053h-152.747c-75.093 0-136.107 61.013-136.107 136.108v152.747c0 16.64-7.253 32.853-20.053 43.947-12.373 11.093-29.44 16.213-45.653 14.080-100.267-12.8-192.427-67.84-252.587-150.613-60.587-83.201-82.773-184.748-63.573-286.295 27.733-146.773 145.067-264.107 292.267-291.84 23.467-4.693 46.933-6.827 70.4-6.827 77.227 0 151.893 23.893 215.467 70.4 82.773 60.16 137.813 152.32 150.613 252.587 2.133 16.64-2.987 33.28-14.080 45.653z" />
<glyph unicode="&#xe914;" glyph-name="festival_list" d="M489.882 146.645l-12.663 13.12c-19.908-19.213-39.317-39.309-57.803-59.802l-52.897 52.766c19.893 17.852 39.427 36.535 58.108 55.714l-13.061 12.723c-18.783-19.281-38.437-38.067-58.454-55.979-16.17 11.375-38.705 9.92-53.188-4.454-16.203-15.42-16.234-43.273-0.076-58.735l68.767-68.599c16.217-16.179 42.638-16.154 58.808 0.077 7.804 7.817 12.1 18.202 12.1 29.244 0 8.678-2.688 16.93-7.612 23.872 18.517 20.587 37.986 40.772 57.971 60.053zM615.194 251.887l-10.735 14.741c5.030 3.665 10.138 7.322 15.177 10.871l10.505-14.908c-4.962-3.494-9.993-7.095-14.946-10.705zM870.046 430.797l-171.874 171.452c-16.111 16.071-42.304 16.115-58.458 0.116-14.933-14.193-16.333-39.389-3.187-55.148-30.66-65.916-67.593-129.293-109.871-188.454l14.835-10.603c17.382 24.32 33.86 49.348 49.399 74.961 36.39-29.538 69.867-62.874 99.712-99.298-19.302-11.657-38.272-23.834-56.841-36.527l10.291-15.053c54.025 36.928 111.484 69.538 170.863 97.020 16.346-13.052 40.158-11.904 55.138 3.046 16.085 15.394 16.077 43.098-0.009 58.487zM649.34 448.124c-7.049 0-12.762 5.709-12.762 12.745s5.713 12.74 12.762 12.74c7.049 0 12.762-5.705 12.762-12.74s-5.713-12.745-12.762-12.745zM692.83 410.116c-7.049 0-12.762 5.705-12.762 12.74 0 7.040 5.713 12.745 12.762 12.745s12.762-5.705 12.762-12.745c0-7.036-5.713-12.74-12.762-12.74zM733.453 369.958c-7.049 0-12.762 5.709-12.762 12.745 0 7.040 5.713 12.745 12.762 12.745s12.762-5.705 12.762-12.745c0-7.036-5.713-12.745-12.762-12.745zM857.169 385.212c-9.045-9.024-23.765-9.015-32.811 0.009l-171.874 171.449c-8.994 8.603-8.994 24.080 0 32.675 9.045 9.022 23.765 9.017 32.811-0.007l171.874-171.451c8.994-8.606 8.998-24.064 0-32.674zM724.143 160.67c-14.485 14.447-37.077 15.927-53.278 4.518-120.171 107.49-215.475 235.972-283.384 382.031 13.105 15.723 11.757 40.815-3.076 55.037-16.146 16.105-42.419 16.102-58.569-0.007l-171.876-171.453c-16.082-15.394-16.088-43.093 0-58.492 14.973-14.942 38.784-16.090 55.126-3.046 146.429-67.733 275.228-162.795 382.982-282.662-11.588-15.757-9.651-39.458 4.489-53.107 16.171-16.23 42.598-16.256 58.816-0.077l68.766 68.599c16.128 15.441 16.137 43.213 0.004 58.658zM387.432 460.868c0-7.040-5.714-12.745-12.762-12.745s-12.762 5.705-12.762 12.745c0 7.036 5.714 12.74 12.762 12.74 7.048 0.004 12.762-5.705 12.762-12.74zM199.652 385.22c-9.047-9.028-23.768-9.033-32.821 0-8.986 8.602-8.978 24.068 0.007 32.67l171.876 171.45c9.047 9.028 23.77 9.030 32.821 0 8.986-8.602 8.978-24.067-0.007-32.668l-171.876-171.452zM290.557 369.963c-7.049 0-12.762 5.705-12.762 12.74 0 7.040 5.714 12.745 12.762 12.745s12.762-5.705 12.762-12.745c0-7.036-5.713-12.74-12.762-12.74zM318.418 422.861c0 7.036 5.714 12.74 12.762 12.74s12.762-5.705 12.762-12.74c0-7.040-5.714-12.745-12.762-12.745s-12.762 5.705-12.762 12.745zM333.472 323.904c29.807 36.365 63.23 69.649 99.561 99.145 60.843-100.45 135.996-190.98 224.435-270.31l-52.919-52.787c-79.548 88.26-170.334 163.247-271.076 223.953zM916.898 858.076l-7.565 16.591c-252.501-115.112-542.135-115.112-794.635 0l-7.563-16.591c11.069-5.047 22.214-9.859 33.417-14.472l25.619-128.219c1.216-7.264 11.208-9.908 15.856-4.156l78.843 91.773c8.063-2.148 16.146-4.194 24.249-6.13l28.383-121.364c1.45-7.212 11.504-9.536 15.969-3.652l83.468 103.308c9.31-0.95 18.63-1.765 27.956-2.447l63.023-121.888c3.089-6.477 13.107-6.477 16.196 0l63.023 121.888c10.692 0.78 21.367 1.719 32.030 2.854l83.831-103.716c4.471-5.884 14.524-3.552 15.97 3.656l28.612 122.472c6.541 1.599 13.065 3.286 19.58 5.021l78.839-91.773c4.651-5.754 14.643-3.109 15.859 4.156l25.617 128.219c11.204 4.611 22.349 9.425 33.421 14.472zM327.009 697.82l-22.105 94.523c28.669-6.229 57.552-11.137 86.558-14.749l-64.453-79.773zM701.453 697.818l-64.887 80.282c29.231 3.764 58.334 8.858 87.215 15.28l-22.327-95.562zM856.913 55.966l-12.557 13.218 14.080 13.38c3.443 3.268 3.776 8.7 0.768 12.365l-15.612 19.021c-8.593 10.47-8.158 25.882 1.015 35.849l14.242 15.475c3.204 3.482 3.183 8.917-0.051 12.373l-13.517 14.46c-9.702 10.377-9.903 26.206-0.465 36.826l13.662 15.364c3.277 3.686 3.042 9.242-0.533 12.638l-18.607 17.681 12.561 13.218 18.607-17.677c10.748-10.21 11.447-26.893 1.6-37.973l-13.662-15.369c-3.14-3.533-3.072-8.802 0.158-12.254l13.517-14.46c9.707-10.381 9.775-26.709 0.149-37.171l-14.242-15.479c-3.051-3.319-3.196-8.448-0.337-11.93l15.612-19.021c9.041-11.017 8.030-27.337-2.304-37.154l-14.084-13.38zM164.031 55.966l-12.56 13.218 14.082 13.38c3.439 3.268 3.776 8.7 0.766 12.369l-15.612 19.021c-8.592 10.466-8.158 25.877 1.014 35.844l14.24 15.475c3.204 3.482 3.184 8.917-0.049 12.373l-13.52 14.46c-9.704 10.377-9.903 26.21-0.463 36.826l13.661 15.364c3.279 3.686 3.043 9.242-0.535 12.638l-18.606 17.681 12.559 13.218 18.606-17.677c10.749-10.21 11.453-26.893 1.603-37.973l-13.663-15.369c-3.142-3.533-3.076-8.802 0.155-12.254l13.519-14.46c9.71-10.381 9.775-26.709 0.151-37.171l-14.243-15.479c-3.052-3.319-3.198-8.448-0.339-11.93l15.612-19.025c9.041-11.012 8.030-27.332-2.301-37.15l-14.078-13.38zM187.156 635.084h86.080v-18.234h-86.080v18.234zM130.927 635.084h23.409v-18.234h-23.409v18.234zM85.333 553.167h96.727v-18.234h-96.727v18.234zM750.801 635.084h86.084v-18.234h-86.084v18.234zM869.687 635.084h23.411v-18.234h-23.411v18.234zM841.95 553.167h96.725v-18.234h-96.725v18.234z" />
<glyph unicode="&#xe915;" glyph-name="dashboard" d="M352 832h-96c-70.692 0-128-57.308-128-128v-96c0-70.692 57.308-128 128-128h96c70.692 0 128 57.308 128 128v96c0 70.692-57.308 128-128 128zM767.996 832h-96c-70.694 0-128-57.308-128-128v-96c0-70.693 57.306-128 128-128h96c70.69 0 128 57.307 128 128v96c0 70.692-57.31 128-128 128zM352 416h-96c-70.692 0-128-57.306-128-128v-96c0-70.694 57.308-128 128-128h96c70.692 0 128 57.306 128 128v96c0 70.694-57.308 128-128 128zM767.996 416h-96c-70.694 0-128-57.306-128-128v-96c0-70.694 57.306-128 128-128h96c70.69 0 128 57.306 128 128v96c0 70.694-57.31 128-128 128z" />
<glyph unicode="&#xe916;" glyph-name="calc_fill" d="M690.773 874.667h-357.547c-155.307 0-247.893-92.587-247.893-247.893v-357.12c0-155.733 92.587-248.32 247.893-248.32h357.12c155.307 0 247.893 92.587 247.893 247.893v357.547c0.427 155.307-92.16 247.893-247.467 247.893zM470.613 206.507c12.373-12.373 12.373-32.853 0-45.227-6.4-6.4-14.507-9.387-22.613-9.387s-16.213 2.987-22.613 9.387l-73.387 73.387-73.387-73.387c-6.4-5.973-14.507-9.387-22.613-9.387s-16.213 2.987-22.613 9.387c-12.373 12.373-12.373 32.853 0 45.227l73.387 73.387-73.387 73.387c-12.373 12.373-12.373 32.853 0 45.227s32.853 12.373 45.227 0l73.387-73.387 73.387 73.387c12.373 12.373 32.853 12.373 45.227 0s12.373-32.853 0-45.227l-73.387-73.387 73.387-73.387zM448 584.107h-192c-17.493 0-32 14.507-32 32s14.507 32 32 32h192c17.493 0 32-14.507 32-32s-14.507-32-32-32zM768 168.107h-192c-17.493 0-32 14.507-32 32s14.507 32 32 32h192c17.493 0 32-14.507 32-32s-14.507-32-32-32zM768 328.107h-192c-17.493 0-32 14.507-32 32s14.507 32 32 32h192c17.493 0 32-14.507 32-32s-14.507-32-32-32zM768 584.107h-63.147v-64c0-17.493-14.507-32-32-32s-32 14.507-32 32v64h-64.853c-17.493 0-32 14.507-32 32s14.507 32 32 32h64.853v64c0 17.493 14.507 32 32 32s32-14.507 32-32v-64h63.147c17.493 0 32-14.507 32-32s-14.507-32-32-32z" />
<glyph unicode="&#xe917;" glyph-name="messages_fill" d="M665.173 430.933v-173.653c0-15.36-1.707-29.867-5.547-43.093-15.787-62.72-67.84-101.973-139.52-101.973h-116.053l-128.853-85.76c-19.2-13.227-44.8 0.853-44.8 23.893v61.867c-43.52 0-79.787 14.507-104.96 39.68-25.6 25.6-40.107 61.867-40.107 105.387v173.653c0 81.067 50.347 136.96 128 144.213 5.547 0.427 11.093 0.853 17.067 0.853h289.707c87.040 0 145.067-58.027 145.067-145.067zM757.333 294.4c54.187 0 99.84 17.92 131.413 49.92 32 31.573 49.92 77.227 49.92 131.413v217.6c0 100.267-81.067 181.333-181.333 181.333h-362.667c-100.267 0-181.333-81.067-181.333-181.333v-32c0-11.947 9.387-21.333 21.333-21.333h285.44c115.627 0 209.067-93.44 209.067-209.067v-115.2c0-11.947 9.387-21.333 21.333-21.333h6.827z" />
<glyph unicode="&#xe918;" glyph-name="money_send" d="M437.333 532.053c0-23.040 6.4-26.453 20.907-31.573l21.76-7.68v72.533h-12.8c-16.213 0-29.867-14.933-29.867-33.28zM544 330.633h12.8c16.64 0 29.867 14.933 29.867 33.28 0 23.040-6.4 26.453-20.907 31.573l-21.76 7.68v-72.533zM835.413 726.187l-87.467-87.467c-6.4-6.4-14.507-9.387-22.613-9.387s-16.213 2.987-22.613 9.387c-12.373 12.373-12.373 32.853 0 45.227l87.467 87.467c-75.093 64-171.947 103.253-278.187 103.253-235.52 0-426.667-191.147-426.667-426.667s191.147-426.667 426.667-426.667c235.52 0 426.667 191.147 426.667 426.667 0 106.24-39.253 203.093-103.253 278.187zM586.667 455.68c27.307-9.813 64-29.44 64-92.16 0-53.333-42.24-97.28-93.867-97.28h-12.8v-10.667c0-17.493-14.507-32-32-32s-32 14.507-32 32v10.667h-3.413c-56.747 0-103.253 47.787-103.253 106.667 0 17.92 14.507 32.427 32 32.427s32-14.507 32-32c0-23.467 17.493-42.667 39.253-42.667h3.413v94.72l-42.667 14.933c-27.307 9.813-64 29.44-64 92.16 0 53.333 42.24 97.28 93.867 97.28h12.8v10.24c0 17.493 14.507 32 32 32s32-14.507 32-32v-10.667h3.413c56.747 0 103.253-47.787 103.253-106.667 0-17.493-14.507-32-32-32s-32 14.507-32 32c0 23.467-17.493 42.667-39.253 42.667h-3.413v-94.72l42.667-14.933zM968.107 887.040c-3.413 7.68-9.387 14.080-17.493 17.493-3.84 1.28-7.68 2.133-11.947 2.133h-170.667c-17.493 0-32-14.507-32-32s14.507-32 32-32h93.44l-71.253-71.253c16.213-14.080 31.147-29.013 45.227-45.227l71.253 71.253v-93.44c0-17.493 14.507-32 32-32s32 14.507 32 32v170.667c0 4.267-0.853 8.107-2.56 12.373z" />
<glyph unicode="&#xe919;" glyph-name="role_fill" d="M306.419 504.9c0 6.912 5.414 12.514 12.093 12.514h73.668c4.945 0 9.391-3.115 11.228-7.868l19.349-50.065c0.576-1.493 0.865-3.068 0.865-4.646 0-1.583-0.288-3.157-0.865-4.651l-19.349-50.065c-1.836-4.753-6.283-7.868-11.228-7.868h-73.668c-6.679 0-12.093 5.602-12.093 12.514v100.134zM500.006 966.525c7.987 0.411 15.996 0.411 23.983 0 58.347-2.998 111.701-34.881 218.411-98.647 106.705-63.766 160.060-95.649 191.74-146.449 4.339-6.957 8.341-14.132 11.994-21.5 26.662-53.798 26.662-117.564 26.662-245.094 0-127.535 0-191.3-26.662-245.099-3.652-7.369-7.654-14.541-11.994-21.5-31.68-50.799-85.035-82.684-191.744-146.449-106.705-63.765-160.060-95.65-218.406-98.645-7.987-0.41-15.996-0.41-23.983 0-58.347 2.995-111.701 34.88-218.409 98.645s-160.062 95.65-191.743 146.449c-4.339 6.959-8.341 14.131-11.993 21.5-26.664 53.798-26.664 117.564-26.664 245.099 0 127.53 0 191.296 26.664 245.094 3.651 7.368 7.654 14.543 11.993 21.5 31.681 50.799 85.035 82.682 191.743 146.449s160.062 95.649 218.409 98.647zM318.512 592.515c-46.751 0-84.65-39.227-84.65-87.615v-100.134c0-48.388 37.899-87.616 84.65-87.616h73.668c34.615 0 65.74 21.815 78.595 55.078l17.412 45.056h95.821c2.675-13.568 0.956-27.844-5.163-40.503l-2.556-5.286c-8.96-18.547-1.694-41.105 16.226-50.377 17.92-9.276 39.714-1.758 48.674 16.789l2.551 5.286c11.217 23.219 15.714 48.896 13.495 74.091h71.885c2.675-13.568 0.956-27.844-5.163-40.503l-2.551-5.286c-8.96-18.547-1.698-41.105 16.222-50.377 17.92-9.276 39.714-1.758 48.674 16.789l2.551 5.286c18.726 38.763 18.726 84.386 0 123.149-7.71 15.957-23.471 26.039-40.708 26.039h-138.675c-0.508 0.013-1.011 0.013-1.519 0h-119.765l-17.412 45.057c-12.855 33.264-43.981 55.076-78.595 55.076h-73.668z" />
<glyph unicode="&#xe91a;" glyph-name="member_fill" d="M384 874.667c-111.787 0-202.667-90.88-202.667-202.667 0-109.653 85.76-198.4 197.547-202.24 3.413 0.427 6.827 0.427 9.387 0 0.853 0 1.28 0 2.133 0 0.427 0 0.427 0 0.853 0 109.227 3.84 194.987 92.587 195.413 202.24 0 111.787-90.88 202.667-202.667 202.667zM600.747 356.228c-119.040 79.36-313.175 79.36-433.068 0-54.187-36.267-84.053-85.333-84.053-137.813s29.867-101.12 83.627-136.96c59.733-40.107 138.24-60.16 216.747-60.16s157.015 20.053 216.748 60.16c53.76 36.267 83.627 84.907 83.627 137.813-0.427 52.48-29.867 101.12-83.627 136.96zM852.911 646.822c6.827-82.773-52.053-155.307-133.547-165.12-0.427 0-0.427 0-0.853 0h-1.28c-2.56 0-5.12 0-7.253-0.853-41.387-2.133-79.36 11.093-107.947 35.413 43.947 39.253 69.12 98.133 64 162.133-2.987 34.56-14.933 66.133-32.853 93.013 16.213 8.107 34.987 13.227 54.187 14.933 83.627 7.253 158.293-55.040 165.547-139.52zM938.24 252.143c-3.413-41.387-29.867-77.227-74.24-101.547-42.667-23.467-96.427-34.56-149.76-33.28 30.72 27.733 48.64 62.293 52.053 98.987 4.267 52.907-20.907 103.68-71.253 144.213-28.587 22.613-61.867 40.533-98.133 53.76 94.293 27.307 212.907 8.96 285.867-49.92 39.253-31.573 59.307-71.253 55.467-112.213z" />
<glyph unicode="&#xe91b;" glyph-name="profile_delete" d="M512 874.667c-111.787 0-202.667-90.88-202.667-202.667 0-109.653 85.76-198.4 197.547-202.24 3.413 0.427 6.827 0.427 9.387 0 0.853 0 1.28 0 2.133 0 0.427 0 0.427 0 0.853 0 109.227 3.84 194.987 92.587 195.413 202.24 0 111.787-90.88 202.667-202.667 202.667zM728.747 356.228c-119.040 79.36-313.175 79.36-433.068 0-54.187-36.267-84.053-85.333-84.053-137.813s29.867-101.12 83.627-136.96c59.733-40.107 138.242-60.16 216.748-60.16s157.013 20.053 216.747 60.16c53.76 36.267 83.627 84.907 83.627 137.813-0.427 52.48-29.867 101.12-83.627 136.96zM594.773 180.868c12.373-12.373 12.373-32.853 0-45.227-6.4-6.4-14.507-9.387-22.613-9.387s-16.213 2.987-22.613 9.387l-37.547 37.547-37.547-37.547c-6.4-6.4-14.507-9.387-22.613-9.387s-16.213 2.987-22.613 9.387c-12.375 12.373-12.375 32.853 0 45.227l37.547 37.547-37.547 37.547c-12.375 12.373-12.375 32.853 0 45.227 12.373 12.373 32.853 12.373 45.227 0l37.547-37.547 37.547 37.547c12.373 12.373 32.853 12.373 45.227 0s12.373-32.853 0-45.227l-37.547-37.547 37.547-37.547z" />
<glyph unicode="&#xe91c;" glyph-name="search" d="M490.667 32c-241.067 0-437.333 196.267-437.333 437.333s196.267 437.333 437.333 437.333c241.067 0 437.333-196.267 437.333-437.333s-196.267-437.333-437.333-437.333zM490.667 842.667c-206.080 0-373.333-167.68-373.333-373.333s167.253-373.333 373.333-373.333c206.080 0 373.333 167.68 373.333 373.333s-167.253 373.333-373.333 373.333zM938.662-10.645c-8.107 0-16.213 2.987-22.613 9.387l-85.333 85.333c-12.373 12.373-12.373 32.853 0 45.227s32.853 12.373 45.227 0l85.333-85.333c12.373-12.373 12.373-32.853 0-45.227-6.4-6.4-14.507-9.387-22.613-9.387z" />
<glyph unicode="&#xe91d;" glyph-name="sms_1" d="M725.333 810.667h-426.667c-128 0-213.333-64-213.333-213.333v-298.667c0-149.333 85.333-213.333 213.333-213.333h426.667c128 0 213.333 64 213.333 213.333v298.667c0 149.333-85.333 213.333-213.333 213.333zM745.387 550.827l-133.547-106.667c-28.16-22.613-64-33.707-99.84-33.707s-72.107 11.093-99.84 33.707l-133.547 106.667c-13.653 11.093-15.787 31.573-5.12 45.227 11.093 13.653 31.147 16.213 44.8 5.12l133.547-106.667c32.427-26.027 87.467-26.027 119.893 0l133.547 106.667c13.653 11.093 34.133 8.96 44.8-5.12 11.093-13.653 8.96-34.133-4.693-45.227z" />
<glyph unicode="&#xe91e;" glyph-name="arrow-right" d="M615.671 192c-5.611 0-11.221 2.065-15.65 6.498l-192.544 192.542c-31.303 31.305-31.303 82.688 0 113.993l192.544 192.544c8.563 8.564 22.741 8.564 31.305 0s8.563-22.739 0-31.303l-192.546-192.546c-14.174-14.174-14.174-37.21 0-51.383l192.546-192.546c8.563-8.563 8.563-22.737 0-31.3-4.429-4.134-10.039-6.498-15.654-6.498z" />
<glyph unicode="&#xe91f;" glyph-name="sms_fill" d="M256 405.333c-117.76 0-213.333-95.147-213.333-213.333s95.573-213.333 213.333-213.333c117.76 0 213.333 95.573 213.333 213.333s-95.147 213.333-213.333 213.333zM168.96 279.040h87.040c16.213 0 29.013-13.227 29.013-29.013s-12.8-29.013-29.013-29.013h-87.040c-16.213 0-29.013 13.227-29.013 29.013s12.8 29.013 29.013 29.013zM343.040 104.96h-174.080c-16.213 0-29.013 13.227-29.013 29.013s13.227 29.013 29.013 29.013h174.507c16.213 0 29.013-13.227 29.013-29.013s-13.227-29.013-29.44-29.013zM725.333 832h-426.667c-128 0-213.333-64-213.333-213.333v-133.973c0-31.147 32-50.773 60.587-38.4 46.933 20.48 100.267 28.16 156.16 19.2 111.787-18.347 203.093-106.667 225.707-217.6 6.4-32.427 7.253-64 2.987-94.293-3.413-25.173 17.067-47.36 42.24-47.36h152.32c128 0 213.333 64 213.333 213.333v299.093c0 149.333-85.333 213.333-213.333 213.333zM745.387 593.493l-133.547-106.667c-28.16-22.613-64-33.707-99.84-33.707s-72.107 11.093-99.84 33.707l-133.547 106.667c-13.653 11.093-15.787 31.573-5.12 45.227 11.093 13.653 31.147 16.213 44.8 5.12l133.547-106.667c32.427-26.027 87.467-26.027 119.893 0l133.547 106.667c13.653 11.093 34.133 8.96 44.8-5.12 11.093-13.653 8.96-34.133-4.693-45.227z" />
<glyph unicode="&#xe920;" glyph-name="amenities_fill" d="M320.163 575.784h-51.244v153.73c-0.031 21.562 7.731 42.408 21.856 58.699s33.661 26.928 55.009 29.952v-37.408c0.017-2.193 0.231-4.38 0.641-6.534-7.962-4.439-14.594-10.924-19.211-18.784s-7.052-16.81-7.052-25.926v-153.73zM576.38 729.513v-153.73h51.243v153.73c0.030 21.562-7.731 42.408-21.854 58.699-14.127 16.291-33.664 26.928-55.010 29.952v-37.408c-0.017-2.193-0.23-4.38-0.64-6.534 7.962-4.439 14.592-10.924 19.209-18.784s7.053-16.81 7.053-25.926zM384.216 767.946h128.108c3.396 0 6.656 1.35 9.058 3.752s3.755 5.661 3.755 9.059v38.432c0 3.398-1.353 6.656-3.755 9.059s-5.662 3.752-9.058 3.752h-128.108c-3.398 0-6.656-1.35-9.059-3.752s-3.752-5.661-3.752-9.059v-38.432c0-3.398 1.35-6.656 3.752-9.059s5.661-3.752 9.059-3.752zM564.279 428.608c-40.077-31.868-66.761-77.585-74.799-128.149 32.337 39.415 75.435 68.574 124.049 83.93-10.773 20.023-28.19 35.657-49.25 44.22zM740.228 365.687c-11.785 2.428-23.731 4.011-35.742 4.74v-306.428c0.64 0.038 1.297 0.051 1.941 0.098 61.764 5.85 106.825 48.388 106.825 103.403 0 49.067-22.421 86.217-42.15 118.886-16.013 26.645-31.002 52.011-30.874 79.3zM612.25 286.387c-19.729-32.67-42.146-69.82-42.146-118.886 0-55.014 45.056-97.553 106.82-103.403 0.64-0.047 1.297-0.060 1.941-0.098v306.428c-12.011-0.73-23.957-2.313-35.742-4.74 0.128-27.29-14.861-52.655-30.874-79.3zM638.511 390.925c13.299 2.743 26.79 4.459 40.354 5.124v76.599c-31.979-1.954-63.044-11.443-90.662-27.686 22.447-11.742 40.201-30.81 50.308-54.037zM704.486 396.049c13.564-0.666 27.055-2.381 40.354-5.124 10.108 23.228 27.861 42.295 50.308 54.037-27.614 16.243-58.679 25.732-90.662 27.686v-76.599zM766.234 358.639c5.060-21.239 14.199-41.297 26.906-59.055 20.369-33.822 45.734-75.84 45.734-132.083 0.030-18.295-4.075-36.365-12.011-52.851 40.115 35.191 64.875 84.676 68.988 137.882-28.8 50.010-74.901 87.753-129.617 106.108zM590.217 299.584c12.706 17.758 21.841 37.815 26.901 59.055-54.711-18.355-100.817-56.098-129.617-106.108 4.117-53.205 28.877-102.69 68.992-137.882-7.94 16.486-12.045 34.556-12.015 52.851 0 56.243 25.37 98.261 45.739 132.083zM769.822 384.388c48.614-15.356 91.716-44.514 124.053-83.93-8.043 50.564-34.726 96.282-74.799 128.149-21.065-8.563-38.481-24.196-49.254-44.22zM640.431 550.162h-384.323c-10.184-0.030-19.942-4.088-27.143-11.29s-11.26-16.961-11.289-27.141v-243.409h243.406c-0.017 34.423 7.697 68.412 22.579 99.456 14.878 31.044 36.535 58.347 63.381 79.898h-214.069v-25.621c0-3.401-1.35-6.656-3.752-9.058s-5.661-3.755-9.059-3.755c-3.398 0-6.656 1.353-9.059 3.755s-3.752 5.658-3.752 9.058v25.621h-25.622c-3.398 0-6.656 1.348-9.059 3.75s-3.752 5.662-3.752 9.058c0 3.401 1.35 6.656 3.752 9.062 2.403 2.402 5.661 3.75 9.059 3.75h304.643c28.663 14.946 60.211 23.552 92.493 25.237v13.197c-0.030 10.18-4.087 19.938-11.29 27.141-7.202 7.201-16.96 11.26-27.145 11.29zM345.784 575.784h204.975v102.487h-204.975v-102.487zM704.486 498.534c21.862-1.131 43.439-5.449 64.055-12.813v77.251c-0.047 30.565-12.207 59.864-33.822 81.477-21.611 21.612-50.91 33.775-81.476 33.821v-103.768c14.451-2.991 27.43-10.863 36.762-22.293s14.443-25.724 14.481-40.478v-13.197zM243.297 678.27c-30.568-0.034-59.875-12.192-81.49-33.807s-33.774-50.922-33.807-81.49v-243.404c0.013-13.589 5.416-26.615 15.023-36.224 9.607-9.604 22.633-15.010 36.22-15.023h12.811v243.409c0.020 14.758 5.128 29.057 14.462 40.489s22.324 19.296 36.781 22.268v103.782z" />
<glyph unicode="&#xe921;" glyph-name="delete" d="M881.843 672.834c-0.836 0-2.099 0-3.358 0-222.268 22.613-444.117 31.147-663.862 8.533l-85.714-8.533c-17.647-1.707-33.193 11.093-34.874 29.013s10.924 33.28 28.151 34.987l85.714 8.533c223.528 23.040 449.998 14.080 676.887-8.533 17.225-1.707 29.833-17.493 28.151-34.987-1.263-16.64-15.125-29.013-31.095-29.013zM356.512 715.947c-1.681 0-3.361 0-5.462 0.427-16.807 2.987-28.571 19.627-25.63 36.693l9.244 55.893c6.723 40.96 15.966 97.707 113.865 97.707h110.084c98.317 0 107.563-58.88 113.865-98.133l9.242-55.467c2.94-17.493-8.823-34.133-25.63-36.693-17.225-2.987-33.613 8.96-36.134 26.027l-9.242 55.467c-5.884 37.12-7.142 44.373-51.682 44.373h-110.084c-44.536 0-45.376-5.973-51.679-43.947l-9.664-55.467c-2.521-15.787-15.966-26.88-31.092-26.88zM638.426-10.65h-269.745c-146.638 0-152.52 82.347-157.142 148.907l-27.311 429.654c-1.261 17.493 12.185 32.853 29.411 34.133 17.647 0.853 32.353-12.373 33.613-29.867l27.311-429.654c4.622-64.853 6.302-89.173 94.117-89.173h269.745c88.235 0 89.916 24.32 94.118 89.173l27.311 429.654c1.259 17.493 16.384 30.72 33.613 29.867 17.225-1.28 30.673-16.213 29.41-34.133l-27.311-429.654c-4.621-66.56-10.505-148.907-157.141-148.907zM573.21 224h-139.917c-17.226 0-31.511 14.507-31.511 32s14.286 32 31.511 32h139.917c17.225 0 31.509-14.507 31.509-32s-14.285-32-31.509-32zM608.585 394.667h-210.083c-17.227 0-31.512 14.507-31.512 32s14.286 32 31.512 32h210.083c17.229 0 31.514-14.507 31.514-32s-14.285-32-31.514-32z" />
<glyph unicode="&#xe922;" glyph-name="chevrons-left" d="M557.542 704c5.662 0 11.319-2.067 15.791-6.497l194.253-192.543c31.582-31.305 31.582-82.688 0-113.993l-194.253-192.546c-8.64-8.563-22.942-8.563-31.582 0-8.64 8.567-8.64 22.741 0 31.305l194.253 192.546c14.302 14.174 14.302 37.21 0 51.383l-194.253 192.544c-8.64 8.564-8.64 22.739 0 31.303 4.467 4.134 10.129 6.497 15.791 6.497zM278.271 704c5.661 0 11.321-2.067 15.791-6.497l194.255-192.543c31.578-31.305 31.578-82.688 0-113.993l-194.255-192.546c-8.64-8.563-22.941-8.563-31.581 0-8.64 8.567-8.64 22.741 0 31.305l194.254 192.546c14.302 14.174 14.302 37.21 0 51.383l-194.254 192.544c-8.64 8.564-8.64 22.739 0 31.303 4.469 4.134 10.129 6.497 15.791 6.497z" />
<glyph unicode="&#xe923;" glyph-name="user_square" d="M690.773 874.667h-357.547c-155.307 0-247.893-92.587-247.893-247.893v-357.547c0-119.893 55.040-202.24 151.893-233.387 28.16-9.813 60.587-14.507 96-14.507h357.547c35.413 0 67.84 4.693 96 14.507 96.853 31.147 151.893 113.493 151.893 233.387v357.547c0 155.307-92.587 247.893-247.893 247.893zM874.667 269.227c0-91.307-35.84-148.907-107.947-172.8-41.387 81.493-139.52 139.52-254.72 139.52s-212.907-57.6-254.72-139.52h-0.427c-71.253 23.040-107.52 81.067-107.52 172.373v357.973c0 120.32 63.573 183.893 183.893 183.893h357.547c120.32 0 183.893-63.573 183.893-183.893v-357.547zM512 618.667c-84.48 0-152.745-68.267-152.745-152.747s68.265-153.173 152.745-153.173c84.48 0 152.747 68.693 152.747 153.173s-68.267 152.747-152.747 152.747z" />
<glyph unicode="&#xe924;" glyph-name="add_payment_fill" d="M213.333 320c-94.293 0-170.667-76.373-170.667-170.667 0-32 8.96-62.293 24.747-87.893 29.44-49.493 83.627-82.773 145.92-82.773s116.48 33.28 145.92 82.773c15.787 25.6 24.747 55.893 24.747 87.893 0 94.293-76.373 170.667-170.667 170.667zM276.907 118.187h-31.573v-33.28c0-17.493-14.507-32-32-32s-32 14.507-32 32v33.28h-31.573c-17.493 0-32 14.507-32 32s14.507 32 32 32h31.573v30.293c0 17.493 14.507 32 32 32s32-14.507 32-32v-30.293h31.573c17.493 0 32-14.507 32-32s-14.080-32-32-32zM917.333 426.667h-106.667c-46.933 0-85.333-38.4-85.333-85.333s38.4-85.333 85.333-85.333h106.667c11.947 0 21.333 9.387 21.333 21.333v128c0 11.947-9.387 21.333-21.333 21.333zM705.28 729.593c12.8-12.373 2.133-31.573-15.787-31.573l-353.282 0.427c-20.48 0-30.72 24.747-16.213 39.253l74.667 75.093c63.148 62.72 165.122 62.72 228.268 0l80.64-81.493c0.427-0.427 1.28-1.28 1.707-1.707zM933.124 163.84c-26.027-87.893-101.12-142.507-203.52-142.507h-277.333c-16.64 0-27.306 18.347-20.48 33.707 12.8 29.867 20.907 63.573 20.907 94.293 0 129.28-105.386 234.667-234.666 234.667-32.427 0-64-6.827-93.013-19.627-15.787-6.827-34.987 3.84-34.987 20.907v62.72c0 116.053 69.973 197.12 178.773 210.773 10.667 1.707 22.187 2.56 34.133 2.56h426.666c11.093 0 21.76-0.427 32-2.133 86.187-9.813 148.48-62.293 171.52-140.373 4.267-14.080-5.973-28.16-20.48-28.16h-97.707c-92.587 0-165.973-84.48-145.92-180.48 14.080-69.973 78.933-118.187 150.187-118.187h93.44c14.933 0 24.747-14.507 20.48-28.16z" />
<glyph unicode="&#xe925;" glyph-name="Icon" d="M338.291 396.8h347.421c6.149 0 12.16-1.981 17.27-5.688 5.115-3.712 9.098-8.98 11.453-15.145 2.35-6.164 2.97-12.948 1.766-19.497-1.198-6.543-4.157-12.559-8.504-17.275l-173.711-188.513c-5.832-6.328-13.737-9.882-21.985-9.882-8.246 0-16.154 3.553-21.986 9.882l-173.709 188.513c-4.348 4.716-7.308 10.732-8.508 17.275-1.199 6.548-0.583 13.332 1.77 19.497s6.338 11.433 11.45 15.145c5.113 3.707 11.124 5.688 17.273 5.688zM685.711 448h-347.421c-6.15 0.002-12.161 1.981-17.273 5.69s-9.097 8.978-11.45 15.144c-2.353 6.166-2.969 12.95-1.77 19.495s4.16 12.558 8.508 17.277l173.709 188.513c5.832 6.326 13.74 9.881 21.986 9.881 8.248 0 16.154-3.554 21.985-9.881l173.711-188.513c4.347-4.72 7.306-10.732 8.504-17.277 1.203-6.545 0.584-13.33-1.766-19.495-2.355-6.166-6.339-11.436-11.453-15.144-5.11-3.708-11.121-5.688-17.27-5.69z" />
<glyph unicode="&#xe926;" glyph-name="logout" d="M744.115 304.218c-8.109 0-16.218 2.982-22.618 9.382-12.371 12.376-12.371 32.856 0 45.229l86.618 86.613-86.618 86.613c-12.371 12.374-12.371 32.854 0 45.227 12.378 12.373 32.858 12.373 45.229 0l109.229-109.227c12.371-12.373 12.371-32.853 0-45.226l-109.229-109.229c-6.4-6.4-14.509-9.382-22.611-9.382zM850.355 413.437h-433.917c-17.494 0-32 14.507-32 32s14.506 32 32 32h433.917c17.498 0 32-14.507 32-32s-14.502-32-32-32zM501.771 74.662c-219.733 0-373.333 153.6-373.333 373.332s153.6 373.333 373.333 373.333c17.493 0 32-14.506 32-32s-14.507-32-32-32c-182.187 0-309.333-127.146-309.333-309.333 0-182.184 127.146-309.332 309.333-309.332 17.493 0 32-14.509 32-32s-14.507-32-32-32z" />
<glyph unicode="&#xe927;" glyph-name="close_eye" d="M767.531 658.261c12.459-7.936 24.277-16.299 35.499-24.875 36.949-28.416 67.499-60.032 89.088-91.136 20.949-30.251 35.883-63.403 35.883-94.251s-14.891-64-35.883-94.251c-21.589-31.104-52.139-62.763-89.131-91.136-73.813-56.661-176.469-102.613-290.987-102.613-71.808 0-138.923 18.048-197.248 45.525l-121.489-121.491c-5.841-6.256-14.161-10.166-23.394-10.166-17.673 0-32 14.327-32 32 0 9.234 3.911 17.554 10.185 23.412l682.648 682.65c5.718 5.338 13.394 8.606 21.834 8.606 17.673 0 32-14.327 32-32 0-8.44-3.267-16.116-8.588-21.815zM721.067 611.797l-75.563-75.563c16.662-24.849 26.592-55.43 26.592-88.331 0-88.366-71.634-160-160-160-32.9 0-63.481 9.93-88.909 26.957l0.579-0.365-60.459-60.416c43.912-18.711 94.969-29.736 148.561-30.079l0.132-0.001c97.579 0 186.88 39.381 252.032 89.387 32.512 24.96 58.197 51.968 75.52 76.843 17.877 25.771 24.448 45.952 24.448 57.771s-6.571 32-24.448 57.771c-17.323 24.875-43.008 51.883-75.52 76.843-13.355 10.24-27.733 20.053-43.008 29.184zM470.613 361.344c12.102-5.914 26.333-9.373 41.373-9.373 53.019 0 96 42.981 96 96 0 15.039-3.458 29.271-9.623 41.942l0.25-0.57zM512 736c44.032 0 86.357-6.827 125.909-18.389 4.317-1.318 7.404-5.266 7.404-9.935 0-2.913-1.201-5.545-3.135-7.428l-0.002-0.002-35.157-35.2c-1.958-1.944-4.656-3.146-7.635-3.146-0.879 0-1.733 0.105-2.551 0.302l0.074-0.015c-25.488 6.18-54.765 9.753-84.867 9.813h-0.040c-97.579 0-186.88-39.381-252.032-89.387-32.512-24.96-58.197-51.968-75.52-76.843-17.877-25.771-24.448-45.952-24.448-57.771s6.571-32 24.448-57.771c15.104-21.76 36.608-45.099 63.488-67.285 4.949-4.053 5.419-11.52 0.853-16.085l-30.208-30.251c-1.905-1.931-4.55-3.127-7.474-3.127-2.57 0-4.925 0.924-6.75 2.458l0.016-0.013c-27.45 22.743-51.33 48.317-71.662 76.611l-0.829 1.213c-20.949 30.251-35.883 63.403-35.883 94.251s14.933 64 35.883 94.251c21.589 31.104 52.139 62.72 89.088 91.136 73.856 56.661 176.512 102.613 291.029 102.613zM512 608c5.035 0 10.069-0.213 14.976-0.683 8.405-0.811 11.435-10.837 5.504-16.811l-51.755-51.712c-27.991-9.877-49.643-31.529-59.312-58.847l-0.208-0.673-51.712-51.755c-5.973-5.973-16-2.901-16.811 5.504-0.447 4.489-0.702 9.703-0.702 14.976 0 88.366 71.634 160 160 160 0.007 0 0.014 0 0.021 0h-0.001z" />
<glyph unicode="&#xe928;" d="M920.992 819.040h-324.16v76.384l-532.832-82.24v-720.864l532.832-91.776v113.216h324.16c0.562-0.030 1.22-0.048 1.881-0.048 19.81 0 36.002 15.491 37.122 35.021l0.005 0.099v635.168c-1.141 19.614-17.326 35.088-37.125 35.088-0.662 0-1.321-0.017-1.975-0.052l0.091 0.004zM926.112 143.008h-330.368l-0.544 60.448h79.584v70.4h-80.192l-0.384 41.6h80.576v70.4h-81.184l-0.384 41.6h81.568v70.4h-81.824v41.6h81.824v70.4h-81.824v41.6h81.824v70.4h-81.824v64h333.152z" />
<glyph unicode="&#xe929;" d="M719.584 721.952h138.336v-70.4h-138.336v70.4z" />
<glyph unicode="&#xe92a;" d="M719.584 609.92h138.336v-70.4h-138.336v70.4z" />
<glyph unicode="&#xe92b;" d="M719.584 497.888h138.336v-70.4h-138.336v70.4z" />
<glyph unicode="&#xe92c;" d="M719.584 385.856h138.336v-70.4h-138.336v70.4z" />
<glyph unicode="&#xe92d;" d="M719.584 273.824h138.336v-70.4h-138.336v70.4z" />
<glyph unicode="&#xe92e;" d="M203.104 618.464l68.672 3.936 43.168-118.688 51.008 123.584 68.672 3.936-83.392-168.512 83.392-168.928-72.608 4.896-49.024 128.768-49.056-123.872-66.72 5.888 77.504 149.216-71.616 159.776z" />
</font>
</defs>
</svg>
